<svg width="145" height="40" viewBox="0 0 145 40" fill="none" xmlns="http://www.w3.org/2000/svg">
<g clip-path="url(#clip0_1387_35139)">
<path d="M13.0391 12.4493L13.4384 16.3644L12.8794 16.4443C12.7995 16.2845 12.6398 16.0448 12.48 15.8051C11.7612 14.8463 11.1223 14.1272 10.4834 13.7277C9.04576 12.689 7.84775 12.5292 7.12895 12.9287C6.49002 13.2483 6.41015 14.0473 6.96922 14.6066C7.12895 14.7664 7.28868 14.9262 7.60815 15.086L11.2022 16.9237C13.8378 18.2821 14.7962 20.2796 14.4767 22.5967C13.9975 25.7927 11.3619 27.5506 5.53161 26.9913C4.81281 26.9114 4.09401 26.8315 3.53494 26.6717C2.1772 26.2721 1.53827 26.0324 0.899334 25.553V21.2384H1.4584L2.01747 22.1972C2.89601 23.7153 3.85441 24.6741 4.73294 25.2334C6.49002 26.2721 7.60815 25.7128 7.84775 24.8339C8.00749 24.1947 7.76789 23.6354 6.80948 22.9962C6.64975 22.9163 6.56988 22.8364 6.41015 22.7565L3.45507 21.2384C3.13561 21.0786 2.81614 20.8389 2.57654 20.5992C1.05907 19.3208 0.5 17.9625 0.5 16.2845C0.659734 12.9287 3.45507 10.6915 9.44509 11.4905C10.8028 11.6503 11.921 11.9699 13.0391 12.4493ZM15.0358 39.4558V38.6568L15.9942 38.4171C16.074 38.4171 16.2338 38.3372 16.3935 38.2573C16.7928 38.0176 17.0324 37.6181 17.0324 36.6593V15.2458L15.1156 14.4468V13.8875C17.4318 13.5679 19.6681 13.0086 21.8245 12.3694C22.4634 12.2096 23.0225 11.9699 23.6614 11.7302H24.2205V13.5679C24.9393 12.9287 25.6581 12.3694 26.6963 11.9699C27.0957 11.8101 27.495 11.6503 27.8943 11.5704C32.287 10.5317 36.1206 14.2071 35.6414 18.9213C35.5616 19.8801 35.2421 20.9188 34.7629 21.9575C33.2454 25.1535 30.53 26.9913 26.7762 27.1511H25.7379L24.2205 26.9913V36.7392C24.2205 37.6181 24.6997 38.2573 25.1789 38.3372L26.4567 38.6568V39.4558C26.4567 39.3759 15.0358 39.4558 15.0358 39.4558ZM24.5399 24.8339C25.0191 25.8726 26.2171 26.1123 27.0158 25.3133C27.7346 24.5143 28.1339 23.3158 28.1339 20.5193C28.1339 19.8801 28.1339 19.2409 27.9742 18.6017C27.495 15.0061 26.2171 13.8076 25.1789 13.9674C24.4601 14.1272 24.2205 14.4468 24.2205 15.7252V22.5168C24.2205 23.7952 24.3003 24.3545 24.5399 24.8339Z" fill="white"/>
<path d="M35.8011 14.4466V13.8873C36.5998 13.7275 37.3985 13.6476 38.277 13.4079C40.3536 13.0084 42.3502 11.73 44.4268 11.73H44.906V24.2744C44.9858 25.0735 45.3053 25.3931 45.7845 25.6328C45.8644 25.6328 45.9442 25.7127 45.9442 25.7127L46.5832 25.8725V26.6715H35.881V25.8725L36.5998 25.7127C36.6797 25.7127 36.6797 25.6328 36.8394 25.6328C37.5582 25.3132 37.8777 24.8338 37.8777 23.8749V15.1657L35.8011 14.4466ZM48.3403 14.4466V13.8873C50.6564 13.5677 52.8927 13.0084 55.0491 12.3692C55.688 12.2094 56.2471 11.9697 56.886 11.73H57.4451V13.4878L59.6813 12.4491C60.48 12.0496 61.2787 11.8898 61.9975 11.73C64.9526 11.2506 66.9492 12.2094 67.7479 14.0471C67.9875 14.6064 68.0674 15.1658 68.0674 15.7251V24.594C68.0674 25.3132 68.7063 25.7926 69.4251 25.8725H69.8244V26.6715H59.6813V25.8725L60.2404 25.7127C60.8794 25.5529 61.0391 25.0735 61.0391 23.8749V16.0447C61.0391 15.0059 60.5599 14.4466 59.6813 14.2868C59.5216 14.2868 58.7229 14.3667 58.4833 14.4466C57.8444 14.8461 57.6048 15.2457 57.6048 16.2045V23.8749C57.6048 24.3543 57.6847 24.674 57.7645 24.9137C57.8444 25.2333 58.084 25.3931 58.2437 25.5529L58.8028 25.8725V26.6715H48.4201V25.8725H48.8195C48.9792 25.8725 49.1389 25.7926 49.2987 25.7127L49.5383 25.6328C50.0175 25.3931 50.2571 25.0735 50.3369 24.2744V15.2457L48.3403 14.4466ZM80.6065 12.0496V5.65755L78.6098 4.77864L78.6897 4.21933C80.287 3.97963 81.9642 3.66003 83.4817 3.26052C84.7596 2.94092 85.8777 2.06201 87.1556 2.06201H87.7146V24.1945L89.7113 25.0735V25.5529L81.0857 26.9112L80.6065 26.8313V24.9137C80.6065 24.9137 79.3286 25.7926 78.9293 25.9524C74.1373 28.4293 69.9842 25.8725 69.505 20.9186C69.4251 20.4392 69.4251 19.9598 69.4251 19.4804C69.5848 14.6863 72.8594 11.4903 77.4118 11.3305C78.0507 11.3305 78.6098 11.3305 79.4883 11.5702C79.4883 11.73 80.6065 12.0496 80.6065 12.0496ZM80.6065 16.1246C80.6065 14.6064 80.3669 13.9672 80.1273 13.5677C79.5682 12.6888 78.4501 12.529 77.8111 13.4079C77.1722 14.127 76.8527 15.3256 76.693 17.8025C76.693 18.5216 76.5333 21.3181 77.4118 22.6764C78.2903 24.1146 79.5682 24.5141 80.4467 23.6352C80.5266 23.5553 80.5266 23.4754 80.6065 23.4754V16.1246ZM90.0308 14.4466V13.8873C92.9858 13.4079 95.861 12.6888 98.6564 11.73H99.1356V14.4466L100.653 12.8486C101.372 12.1295 101.931 11.8898 102.49 11.73C104.167 11.4104 105.365 12.2094 105.765 13.6476C105.924 14.2868 105.844 15.0059 105.525 15.5653C105.046 16.5241 104.167 17.0834 103.049 17.0035C101.532 17.0035 100.493 15.4854 100.493 15.4854C100.174 15.3256 100.014 15.1658 99.8544 15.3256C99.7745 15.4055 99.6148 15.5653 99.6148 15.7251L99.3752 16.2844C99.2953 16.5241 99.2155 16.8437 99.2155 17.2432V23.8749C99.2155 24.9936 99.6148 25.473 100.413 25.7127L101.132 25.8725V26.6715H90.0308V25.8725C90.0308 25.8725 90.9892 25.6328 91.069 25.5529C91.708 25.3132 92.0274 24.8338 92.0274 23.8749V15.2457L90.0308 14.4466ZM106.244 14.4466V13.8873C107.042 13.7275 107.841 13.6476 108.72 13.4079C110.796 13.0084 112.793 11.73 114.869 11.73H115.349V24.2744C115.428 25.0735 115.748 25.3931 116.227 25.6328C116.307 25.6328 116.387 25.7127 116.387 25.7127L117.026 25.8725V26.6715H106.164V25.8725L106.883 25.7127C106.963 25.7127 107.042 25.6328 107.122 25.6328C107.841 25.3132 108.161 24.8338 108.161 23.8749V15.1657L106.244 14.4466ZM118.144 26.6715V25.8725L118.863 25.7127C118.943 25.7127 119.022 25.6328 119.102 25.6328C119.741 25.3931 119.981 24.9936 120.141 24.2744C120.141 24.1146 120.22 24.0347 120.22 23.8749V13.6476H118.384L118.783 11.8099H120.22L120.3 11.0109C120.46 10.0521 120.859 8.69378 121.658 7.25557C123.415 4.29923 125.731 2.78112 128.287 2.38162C131.482 1.90221 133.478 2.78112 134.197 3.89973C134.836 4.85854 134.517 6.21686 133.319 6.85606C133.079 6.93596 132.919 7.01586 132.68 7.09576C130.284 7.73497 129.006 6.53646 128.926 4.77864V4.21933C128.926 3.81983 128.766 3.66003 128.527 3.66003C128.367 3.66003 128.127 3.81983 127.968 4.13943C127.808 4.37914 127.728 4.69874 127.648 5.49775V11.8898H130.843L130.364 13.7275H127.408V23.9548C127.408 25.0735 127.728 25.5529 128.527 25.7926L129.166 25.9524V26.7514L118.144 26.6715Z" fill="white"/>
<path d="M131.482 12.769C134.357 11.171 137.232 9.25338 139.868 7.25586L140.107 7.41566V11.7303H144.101L143.621 13.3283H140.107V23.3958C140.107 24.5943 140.986 25.3934 142.264 24.7541L143.222 24.2747V25.1536C142.503 25.7929 141.625 26.1924 140.427 26.5919C139.948 26.7517 139.468 26.8316 138.829 26.8316C134.197 27.1512 132.999 26.0326 132.999 22.5169V13.4082H131.562L131.482 12.769Z" fill="white"/>
<path d="M109.039 4.13943H109.438V4.21933H109.678V4.29923L109.918 4.21933C109.518 4.21933 109.438 3.81982 109.039 4.13943ZM108.799 3.81982V3.97963L109.039 4.05953L108.799 3.81982ZM108.64 4.77863L108.56 4.37913L108.4 4.29923C108.48 4.69873 108.56 5.09824 108.879 5.25804L108.64 4.77863ZM112.713 5.49774C112.793 5.33794 112.793 5.17814 112.713 5.01834L112.473 5.81735C112.633 5.73744 112.633 5.57764 112.713 5.49774ZM112.393 4.29923C112.314 4.45903 112.314 4.53893 112.473 4.69873L112.393 4.29923ZM112.553 4.45903C112.473 4.61883 112.633 4.77863 112.713 4.93844L112.553 4.45903ZM108.72 8.69378C108.4 8.61387 108.161 8.53397 108.081 8.45407H107.841L108.879 8.85358C109.039 8.85358 109.199 8.93348 109.279 8.85358C109.119 8.93348 108.959 8.77368 108.72 8.69378Z" fill="white"/>
<path d="M108.081 8.45415C107.761 8.29435 108.72 8.37425 108.081 8.45415V8.45415ZM113.272 7.41544L112.793 7.81494C113.192 7.57524 113.512 7.25564 113.751 6.93604L113.591 7.01594C113.512 7.17574 113.432 7.33554 113.272 7.41544Z" fill="white"/>
<path d="M109.199 6.77621C109.678 7.01591 110.077 7.09582 110.557 7.01591C111.355 7.25562 112.234 6.77621 112.553 6.137C112.873 5.6576 113.192 4.77869 112.633 4.37919L112.553 4.45909L112.473 4.29929C112.234 3.81988 111.994 3.50028 111.595 3.26057C111.595 3.18067 111.435 3.34048 111.355 3.34048H111.195C111.036 3.42038 110.716 3.42038 110.716 3.73998C110.636 3.81988 110.557 3.81988 110.557 3.89978L110.397 3.81988C110.157 3.81988 109.997 3.81988 109.918 3.97968H109.838V4.05958C109.438 3.89978 109.359 3.50028 109.039 3.81988V3.73998C108.959 3.66008 108.959 3.58018 108.799 3.42038V3.58018H108.48V3.50028L108.4 3.42038C108.24 3.18067 108.32 2.86107 108.161 2.86107C108.081 2.86107 108.001 3.02087 108.081 3.26057H108.001C108.001 3.02087 107.761 3.18067 107.761 3.02087C107.761 2.78117 107.921 2.62137 108.001 2.46157C108.4 1.66256 109.039 1.26305 109.678 0.783648H109.758C110.157 0.623846 110.557 0.543945 110.956 0.543945L110.876 0.623846C111.195 0.623846 111.515 0.703747 111.834 0.703747C112.713 0.623846 113.512 1.10325 114.151 1.74246C114.869 2.46157 115.189 3.42038 115.349 4.45909C115.269 4.05958 115.109 3.66008 114.949 3.18067C115.189 3.89978 115.109 4.61889 115.269 5.2581L115.189 5.338C115.109 5.8174 114.869 6.137 114.789 6.53651C114.789 6.53651 114.71 6.69631 114.789 6.69631C114.55 7.01591 114.39 7.49532 114.071 7.73502L113.751 8.21443C112.633 9.33304 110.956 9.73254 109.119 9.41294C108.64 9.33304 108.24 9.01344 107.841 8.77373C108.48 9.09334 109.119 9.25314 109.838 9.25314C110.477 9.41294 111.116 9.49284 111.595 9.17324L111.914 9.01344C111.275 9.33304 110.557 9.33304 109.838 9.25314C109.438 9.09334 109.039 9.09334 108.72 8.85363C108.959 9.01344 109.279 8.93353 109.598 9.01344C110.157 9.17324 110.716 9.33304 111.116 9.09334L111.275 9.01344L111.595 8.85363C111.195 9.01344 110.796 9.09334 110.397 9.01344L109.598 8.93353L109.119 8.77373H109.199C109.359 8.77373 109.838 8.45413 109.678 8.29433C108.72 8.13453 107.522 7.25562 107.601 7.17572C107.601 7.09582 109.119 7.89482 109.039 7.73502L108.799 7.57522L109.039 7.65512C109.199 7.73502 109.359 7.89482 109.518 7.81492C109.997 7.65512 110.397 7.81492 110.796 7.73502C111.036 7.57522 111.355 7.41542 111.595 7.17572C111.595 7.09582 111.755 7.09582 111.675 7.01591C111.914 7.01591 112.234 6.93601 112.154 6.61641V6.53651C112.473 6.29681 112.633 6.0571 112.713 5.7375L112.873 5.4179C112.873 5.4978 112.713 5.5777 112.713 5.6576V5.7375C112.633 6.0571 112.393 6.137 112.234 6.45661V6.61641H112.154V6.69631C111.994 7.01591 111.595 7.01591 111.355 7.17572C110.876 7.49532 110.317 7.25562 109.838 7.09581L110.636 7.01591H109.598L109.359 6.85611L109.518 7.01591L109.279 7.09581C108.32 6.77621 107.601 5.7375 107.522 4.69879L107.681 4.77869C107.761 5.2581 107.841 5.7375 108.32 5.8973C108.161 5.6576 108.001 5.5777 107.921 5.338H108.001L107.841 4.77869L108.161 4.93849C108.24 5.01839 108.24 5.09829 108.32 5.2581C108.56 5.7375 108.879 6.21691 109.279 6.45661C109.678 6.69631 109.997 7.01591 110.477 7.01591C110.077 7.09582 109.678 6.93601 109.199 6.77621ZM109.758 2.70127C109.518 2.70127 109.518 3.10077 109.359 3.34048C109.518 3.18067 109.518 2.86107 109.758 2.70127ZM113.591 3.97968C113.352 3.73998 113.352 3.34048 113.032 3.18067C112.953 3.10077 112.793 3.10077 112.713 3.02087C112.633 2.94097 112.553 2.86107 112.393 2.86107V2.94097C112.234 2.78117 111.994 2.94097 111.914 2.78117L111.834 2.86107C111.755 2.78117 111.595 2.70127 111.515 2.78117L111.195 2.86107L111.116 2.94097L110.956 3.02087L111.036 2.94097L111.435 2.86107C111.755 2.78117 112.154 2.94097 112.473 3.10077L112.713 3.26057C113.032 3.34048 113.032 3.73998 113.352 3.89978C113.512 3.89978 113.512 3.97968 113.591 3.97968ZM115.269 4.37919C115.109 3.73998 114.869 3.10077 114.71 2.62137C114.47 2.22186 113.512 1.34295 113.352 1.90226C114.55 1.58266 114.71 4.77869 115.269 4.37919ZM112.713 8.85363C112.953 8.77373 113.192 8.53403 113.432 8.37423C113.192 8.61393 113.032 8.77373 112.713 8.85363ZM113.751 6.21691C113.671 6.93601 112.953 7.33552 112.473 7.81492C111.994 8.05463 111.355 8.05463 110.876 8.21443V8.29433H110.956C111.195 8.37423 111.355 8.37423 111.515 8.37423H111.595L111.994 8.29433L112.154 8.21443C112.873 8.13453 113.432 7.49532 113.831 6.93601C113.991 6.61641 113.991 6.21691 114.071 5.8174C113.911 5.9772 113.831 6.137 113.751 6.21691Z" fill="white"/>
<path d="M109.918 7.33546C109.678 7.33546 109.518 7.17566 109.359 7.09576L108.879 6.93595C108.161 6.53645 107.601 5.57764 107.522 4.69873H107.202C107.202 5.81734 107.921 6.77615 108.799 7.49526C109.279 7.57516 109.918 8.05457 110.477 7.89476C111.036 7.81486 111.515 7.73496 111.914 7.41536C111.195 7.65506 110.557 7.49526 109.918 7.33546ZM112.473 4.69873C112.473 4.77863 112.553 4.85853 112.473 4.93843C112.314 5.09823 112.473 5.49774 112.234 5.73744C112.393 5.65754 112.473 5.41784 112.553 5.25804C112.713 5.09823 112.633 4.85853 112.473 4.69873Z" fill="white"/>
<path d="M112.154 5.89738L112.314 5.65767C112.074 5.81748 111.914 6.05718 111.595 6.13708C111.195 6.45668 110.477 6.45668 109.918 6.29688L109.678 6.21698C110.557 7.01599 112.234 6.93609 112.553 5.81748V5.73758C112.234 5.97728 111.914 6.29688 111.515 6.37678C111.755 6.29688 111.994 6.21698 112.154 5.89738ZM110.077 7.33559L109.997 7.25569H109.838L109.918 7.33559H110.077ZM111.435 8.4542L111.994 8.2944C112.234 8.1346 112.473 8.1346 112.713 7.8949C112.314 8.1346 111.834 8.2145 111.435 8.4542ZM113.432 8.77381L113.751 8.61401L113.831 8.4542L113.591 8.61401L113.432 8.77381ZM115.428 5.33807C115.349 6.45668 114.789 7.6552 113.911 8.3743L113.831 8.5341C114.55 8.1346 115.029 7.49539 115.189 6.77629C115.269 6.61648 115.269 6.37678 115.269 6.29688C115.508 5.73758 115.428 5.09837 115.428 4.53906V5.33807Z" fill="white"/>
<path d="M38.277 4.05957V4.13916H38.3565L38.277 4.05957Z" fill="white"/>
<path d="M38.3568 4.13943H38.7562V4.21933H38.9958V4.29923L39.2354 4.21933C38.7562 4.21933 38.6763 3.81982 38.3568 4.13943ZM38.0373 3.81982V3.97963L38.2769 4.05953C38.2769 3.97963 38.1971 3.89973 38.0373 3.81982ZM37.8776 4.77863L37.7977 4.37913L37.638 4.29923C37.7977 4.69873 37.7977 5.09824 38.1172 5.25804L37.8776 4.77863ZM42.0307 5.49774C42.1106 5.33794 42.1106 5.17814 42.0307 5.01834L41.7911 5.89725C41.9508 5.73744 41.9508 5.57764 42.0307 5.49774ZM41.6314 4.29923C41.5515 4.45903 41.5515 4.53893 41.7112 4.69873L41.6314 4.29923ZM41.871 4.45903C41.7911 4.61883 41.9508 4.77863 42.0307 4.93844L41.871 4.45903ZM38.0373 8.69378C37.7179 8.61387 37.4783 8.53397 37.3984 8.45407H37.1588L38.1971 8.85358C38.3568 8.85358 38.5165 8.93348 38.5964 8.85358C38.3568 8.93348 38.1971 8.77368 38.0373 8.69378Z" fill="white"/>
<path d="M37.3985 8.45415C36.9992 8.29435 38.0375 8.37425 37.3985 8.45415V8.45415ZM42.51 7.41544L42.0308 7.81494C42.4301 7.57524 42.7496 7.25564 42.9892 6.93604L42.8295 7.01594C42.7496 7.17574 42.6697 7.33554 42.51 7.41544Z" fill="white"/>
<path d="M38.5166 6.77621C38.9958 7.01591 39.3951 7.09581 39.8743 7.01591C40.673 7.25562 41.5515 6.77621 41.871 6.137C42.1904 5.6576 42.5099 4.77869 41.9508 4.37919L41.871 4.45909L41.7112 4.29928C41.4716 3.81988 41.232 3.50028 40.8327 3.26057C40.8327 3.18067 40.673 3.34047 40.5931 3.34047H40.4334C40.1938 3.42038 39.9542 3.42038 39.9542 3.73998C39.9542 3.73998 39.7944 3.81988 39.7944 3.89978L39.6347 3.81988C39.3951 3.81988 39.2354 3.81988 39.1555 3.97968H39.0756V4.05958C38.6763 3.89978 38.5964 3.50028 38.277 3.81988V3.73998C38.1971 3.66008 38.1971 3.58018 38.0374 3.42038V3.58018L37.8776 3.50028V3.42038L37.7978 3.34047C37.4783 3.18067 37.5582 2.86107 37.3984 2.86107C37.3186 2.86107 37.2387 3.02087 37.3186 3.26057H37.2387C37.2387 3.02087 36.9991 3.18067 36.9991 3.02087C36.9991 2.78117 37.1588 2.62137 37.2387 2.46157C37.638 1.66256 38.277 1.26305 38.9159 0.783648H38.9958C39.3951 0.623846 39.7944 0.543945 40.1938 0.543945L40.1139 0.623846C40.4334 0.623846 40.7528 0.703747 41.0723 0.703747C41.9508 0.623846 42.7495 1.10325 43.3884 1.74246C44.1072 2.46157 44.4267 3.42038 44.5864 4.45909C44.5066 4.05958 44.3468 3.66008 44.1871 3.18067L44.0274 2.62137L44.3468 3.18067C44.5864 3.97968 44.5066 4.61889 44.6663 5.338L44.5864 5.4179C44.5066 5.8973 44.267 6.21691 44.1871 6.61641C44.1871 6.61641 44.1072 6.77621 44.1871 6.77621C43.9475 7.09581 43.7878 7.57522 43.4683 7.81492L43.1488 8.29433C42.0307 9.41294 40.3535 9.81244 38.5166 9.49284C38.0374 9.41294 37.638 9.09334 37.2387 8.85363C37.8776 9.17324 38.5166 9.33304 39.2354 9.33304C39.8743 9.49284 40.5132 9.57274 40.9924 9.25314L41.3119 9.09334C40.673 9.41294 39.9542 9.41294 39.2354 9.33304C38.836 9.17324 38.4367 9.17324 38.1172 8.93353C38.3568 9.09334 38.7562 9.01343 38.9958 9.09334C39.5548 9.25314 40.1139 9.41294 40.5132 9.17324L40.673 9.09334L40.9924 8.93353C40.5931 9.09334 40.1938 9.17324 39.7944 9.09334L38.9958 9.01344L38.5166 8.85363H38.5964C38.7562 8.85363 39.2354 8.53403 39.0756 8.37423C38.1172 8.21443 36.9192 7.33552 36.9991 7.25562C36.9991 7.17571 38.5166 7.97472 38.4367 7.81492L38.1971 7.65512L38.4367 7.73502C38.5964 7.81492 38.7562 7.97472 38.9159 7.89482C39.3951 7.73502 39.7944 7.89482 40.1938 7.81492C40.4334 7.65512 40.7528 7.49532 40.9924 7.25562C40.9924 7.17571 41.1522 7.17571 41.0723 7.09581C41.3119 7.09581 41.6314 7.01591 41.5515 6.69631V6.61641C41.871 6.37671 42.0307 6.137 42.1106 5.8174L42.2703 5.4978C42.1904 5.5777 42.1106 5.6576 42.1106 5.7375V5.8174C42.1904 6.21691 41.9508 6.37671 41.7911 6.61641V6.77621H41.7112V6.85611C41.5515 7.17572 41.1522 7.17572 40.9126 7.33552C40.4334 7.65512 39.8743 7.41542 39.3951 7.25562L40.1938 7.17572H39.1555L38.9159 7.01591L39.0756 7.17572L38.5964 7.01591C37.638 6.69631 36.9192 5.6576 36.8394 4.61889L36.9991 4.77869C37.079 5.2581 37.1588 5.7375 37.638 5.8973C37.4783 5.6576 37.3186 5.5777 37.2387 5.338H37.3186L37.1588 4.77869L37.4783 4.93849C37.5582 5.01839 37.5582 5.09829 37.638 5.2581C37.8776 5.7375 38.1172 6.21691 38.5964 6.45661C38.9958 6.69631 39.3951 6.93601 39.7944 7.01591C39.3152 7.09581 38.9159 6.93601 38.5166 6.77621ZM38.9958 2.70127C38.7562 2.70127 38.7562 3.10077 38.5964 3.34047C38.836 3.18067 38.7562 2.86107 38.9958 2.70127ZM42.8294 3.97968C42.5898 3.73998 42.5898 3.34047 42.2703 3.18067C42.1904 3.10077 42.0307 3.10077 41.9508 3.02087C41.871 2.94097 41.7911 2.86107 41.6314 2.86107V2.94097C41.4716 2.78117 41.232 2.94097 41.1522 2.78117L41.0723 2.86107C40.9924 2.78117 40.8327 2.70127 40.7528 2.78117L40.4334 2.86107L40.3535 2.94097L40.1938 3.02087L40.2736 2.94097L40.673 2.86107C40.9924 2.78117 41.3918 2.94097 41.7112 3.10077L41.9508 3.26057C42.2703 3.34047 42.2703 3.73998 42.5898 3.89978C42.7495 3.89978 42.7495 3.97968 42.8294 3.97968ZM44.5864 4.37919C44.4267 3.73998 44.1871 3.10077 44.0274 2.62137C43.7878 2.22186 42.8294 1.34295 42.6696 1.90226C43.8676 1.58266 44.0274 4.77869 44.5864 4.37919ZM41.9508 8.85363C42.1904 8.77373 42.43 8.53403 42.6696 8.37423C42.5099 8.61393 42.2703 8.77373 41.9508 8.85363ZM43.069 6.21691C42.9891 6.93601 42.2703 7.33552 41.7911 7.81492C41.3119 8.05463 40.673 8.05463 40.1938 8.21443V8.29433H40.2736C40.5132 8.37423 40.673 8.37423 40.8327 8.37423H40.9126L41.3119 8.29433L41.4716 8.21443C42.1904 8.13453 42.7495 7.49532 43.1488 6.93601C43.3086 6.61641 43.3086 6.21691 43.3884 5.8174C43.1488 5.9772 43.069 6.137 43.069 6.21691Z" fill="white"/>
<path d="M39.1555 7.33546C38.9159 7.33546 38.7562 7.17566 38.5965 7.09576L38.1173 6.93595C37.3985 6.53645 36.8394 5.57764 36.7595 4.69873H36.4401C36.4401 5.81734 37.1589 6.77615 38.0374 7.49526C38.5166 7.57516 39.1555 8.05457 39.7146 7.89476C40.2737 7.81486 40.7529 7.73496 41.1522 7.41536C40.4334 7.65506 39.7945 7.49526 39.1555 7.33546ZM41.7113 4.69873C41.7113 4.77863 41.7911 4.85853 41.7113 4.93843C41.5515 5.09823 41.7113 5.49774 41.4717 5.73744C41.6314 5.65754 41.7113 5.41784 41.7911 5.25804C41.9509 5.09823 41.871 4.85853 41.7113 4.69873Z" fill="white"/>
<path d="M41.3918 5.8972L41.4717 5.6575C41.2321 5.8173 41.0723 6.057 40.7529 6.1369C40.3535 6.45651 39.6347 6.45651 39.0757 6.2967L38.8361 6.2168C39.7146 7.01581 41.3918 6.93591 41.7113 5.8173V5.7374C41.3918 5.9771 41.0723 6.2967 40.673 6.3766C40.9925 6.2967 41.2321 6.2168 41.3918 5.8972ZM39.3951 7.33541L39.2354 7.25551H39.0757L39.1555 7.33541H39.3951ZM40.7529 8.45403L41.3119 8.29422C41.5515 8.13442 41.7911 8.13442 42.0307 7.89472C41.6314 8.13442 41.1522 8.21432 40.7529 8.45403ZM42.7495 8.77363L42.9891 8.61383L43.069 8.45403L42.9093 8.61383L42.7495 8.77363ZM44.6663 5.33789C44.5865 6.45651 44.0274 7.65502 43.1489 8.37413L43.069 8.53393C43.7878 8.13442 44.267 7.49522 44.4267 6.77611C44.5066 6.53641 44.5066 6.3766 44.5865 6.2168C44.8261 5.6575 44.7462 5.01829 44.7462 4.45898L44.6663 5.33789Z" fill="white"/>
<path d="M144.5 8.53392C144.5 9.33293 143.861 9.97213 143.062 9.97213C142.264 9.97213 141.625 9.33293 141.625 8.53392C141.625 7.73491 142.264 7.0957 143.062 7.0957C143.861 7.1756 144.5 7.73491 144.5 8.53392ZM142.024 8.53392C142.024 9.17313 142.503 9.65253 143.142 9.65253C143.701 9.65253 144.26 9.17313 144.26 8.53392C144.26 7.89471 143.781 7.41531 143.142 7.41531C142.503 7.41531 142.024 7.89471 142.024 8.53392ZM143.142 7.73491C143.382 7.73491 143.701 7.81481 143.701 8.13441C143.701 8.37412 143.542 8.45402 143.382 8.53392L143.701 9.25303H143.382L143.142 8.61382H142.903V9.25303H142.583V7.73491H143.142ZM142.903 7.97461V8.45402H143.142C143.302 8.45402 143.462 8.37412 143.462 8.21432C143.462 8.05451 143.382 7.97461 143.222 7.97461H142.903Z" fill="white"/>
</g>
<defs>
<clipPath id="clip0_1387_35139">
<rect width="144" height="39" fill="white" transform="translate(0.5 0.5)"/>
</clipPath>
</defs>
</svg>
