<svg width="110" height="20" viewBox="0 0 110 20" fill="none" xmlns="http://www.w3.org/2000/svg">
<path d="M8.24156 7.26288L20.7368 3.61842L17.9514 7.80955C17.0924 6.97653 16.0771 6.2997 14.6974 6.74224C13.9165 7.00256 13.3178 7.47114 12.9793 8.27812C13.3438 8.25209 13.6822 8.20003 13.9946 8.22606C14.7495 8.27812 15.3743 8.6686 15.947 9.11114C16.8581 9.86606 17.7432 10.647 18.7324 11.5061C18.8365 11.3499 18.9667 11.2197 19.0448 11.0375C19.7997 8.85082 20.6327 6.71621 21.7521 4.68573C22.7673 2.8635 24.173 1.40572 25.761 0.0780963C25.787 0.0520644 25.8391 0.0260318 25.8911 0C25.9172 0 25.9432 0 25.9432 0L24.3553 2.44699L24.4594 2.55112C24.7978 2.44699 25.1362 2.39493 25.4746 2.26477C26.8283 1.77016 28.0778 2.96763 27.9476 4.34731C27.7654 6.45589 27.6353 8.53844 27.5051 10.647C27.4791 11.0896 27.4791 11.5581 27.427 12.0007C27.3229 12.8337 26.8803 13.4064 26.0473 13.6667C25.8391 13.7448 25.6048 13.7969 25.3965 13.8489C24.954 13.9531 24.5895 14.0832 24.3292 14.5258C24.0429 14.9943 23.4181 15.1245 22.9235 14.9683C22.2987 14.76 21.9603 14.3175 21.8822 13.6927C21.8041 13.094 22.0384 12.5734 22.533 12.235C23.0016 11.9226 23.5222 11.9226 24.0168 12.2089C24.121 12.261 24.2251 12.287 24.3292 12.287C24.7718 12.1829 25.2143 12.0267 25.6569 11.9226C25.1622 10.7772 23.5743 10.2045 22.2987 10.673C20.6587 11.2978 20.1121 12.9639 20.8149 15.1505C20.086 15.3588 19.3571 15.567 18.6283 15.8013C18.4721 15.8534 18.3679 15.9575 18.2638 16.0616C17.8213 16.7645 17.0403 17.0248 16.3635 16.6343C15.6346 16.2439 15.4003 15.2807 15.8168 14.5258C16.2073 13.7969 17.0143 13.5886 17.7432 13.9791C17.8213 14.0312 17.9254 14.0832 18.0035 14.0572C18.4721 13.927 18.9406 13.7969 19.4092 13.6667C18.7584 12.4432 17.1965 11.9226 15.9209 12.4953C14.359 13.1721 13.8384 14.8642 14.5673 16.9207C13.9425 17.1289 13.2917 17.4153 12.6409 17.1029C12.2765 16.9207 11.9381 16.6343 11.7298 16.322C9.43902 12.7556 7.17425 9.18924 4.90948 5.62288C4.54504 5.05018 4.70123 5.12827 4.07646 5.33652C3.34757 5.57081 2.64471 5.85716 1.91582 6.06542C1.1609 6.27367 0.692325 5.98732 0.562166 5.33652C0.458039 4.92002 0.61423 4.60763 0.952644 4.39938C1.31709 4.19112 1.68154 4.0089 2.07201 3.85271C2.74884 3.59239 3.42567 3.35811 4.12853 3.12382C5.06567 2.78541 5.87266 3.07176 6.3933 3.93081C7.01806 4.97208 7.59076 6.03938 8.18949 7.10669C8.16346 7.13272 8.21552 7.18478 8.24156 7.26288Z" fill="#393E41"/>
<path d="M18.1337 18.0661C18.5762 17.9359 18.9927 17.8058 19.4092 17.7016C19.4873 17.6756 19.6175 17.7537 19.6695 17.8318C20.06 18.3004 20.5286 18.5086 21.1273 18.3524C21.7261 18.1702 22.0124 17.7277 22.1426 17.1029C22.1686 16.9988 22.2467 16.8947 22.3248 16.8426C22.7413 16.7124 23.1578 16.5823 23.5743 16.4781C23.9127 17.9099 22.9235 19.5239 21.4657 19.9144C20.0861 20.2788 18.5241 19.4458 18.1337 18.0661Z" fill="#393E41"/>
<path d="M108.881 5.67493V5.80509H108.672V6.37779H108.516V5.80509H108.308V5.67493H108.881Z" fill="#393E41"/>
<path d="M109.115 6.35172H108.985V5.64886H109.193L109.323 6.19553L109.453 5.64886H109.662V6.35172H109.531V5.88315C109.531 5.85712 109.531 5.85712 109.531 5.83109V5.77902L109.401 6.35172H109.271L109.141 5.77902C109.141 5.80506 109.141 5.80505 109.141 5.83109L109.115 6.35172Z" fill="#393E41"/>
<path d="M40.0785 14.2134C38.9331 15.3328 37.4753 15.8534 35.8873 15.8534C31.7743 15.8534 30.0562 13.0159 30.0302 10.1524C30.0041 7.26288 31.9045 4.32129 35.8873 4.32129C37.3972 4.32129 38.8029 4.89399 39.9483 6.01336L38.5686 7.36701C37.8397 6.66415 36.8505 6.32574 35.8873 6.32574C33.2061 6.32574 32.0607 8.30416 32.0867 10.1524C32.1127 11.9746 33.154 13.901 35.8873 13.901C36.8505 13.901 37.9438 13.5105 38.6727 12.7816L40.0785 14.2134Z" fill="#393E41"/>
<path d="M43.3846 4.5816H41.4843V15.6191H43.3846V4.5816Z" fill="#393E41"/>
<path d="M47.6277 5.62289C47.6277 7.13273 45.3629 7.13273 45.3629 5.62289C45.3629 4.11304 47.6277 4.13907 47.6277 5.62289ZM45.5191 15.6191H47.4455V7.80956H45.5191V15.6191Z" fill="#393E41"/>
<path d="M56.2182 14.6038C55.3071 15.4889 54.3699 15.8273 53.2245 15.8273C50.9597 15.8273 49.0854 14.4737 49.0854 11.7143C49.0854 8.95491 50.9597 7.60126 53.2245 7.60126C54.3178 7.60126 55.1769 7.91364 56.0359 8.74666L54.8125 10.0222C54.3439 9.60571 53.7972 9.39746 53.2505 9.39746C51.949 9.39746 51.0118 10.3346 51.0118 11.7143C51.0118 13.1981 52.027 13.9791 53.2245 13.9791C53.8493 13.9791 54.448 13.7968 54.9426 13.3283L56.2182 14.6038Z" fill="#393E41"/>
<path d="M59.4723 4.5816V10.9594L62.1015 7.80955H64.3923V7.93971L61.2164 11.48L64.8348 15.4629V15.6191H62.518L59.4723 12.0788V15.6191H57.5459V4.5816H59.4723Z" fill="#393E41"/>
<path d="M65.7719 7.75746C65.9802 5.15428 68.2449 4.39935 70.3535 4.39935C72.4361 4.39935 74.6488 5.23237 74.6488 7.80952C74.6488 10.621 72.5402 11.2718 70.2234 11.2718C69.3122 11.2718 67.8284 11.506 67.8284 12.7035V13.6407H74.7008V15.593H65.7198V12.6775C65.7198 10.1264 68.0367 9.37143 70.1973 9.37143C71.0303 9.37143 72.5662 9.11112 72.5662 7.83556C72.5662 6.61206 71.6291 6.22158 70.3275 6.16952C69.104 6.16952 67.8545 6.61206 67.8284 7.7054H65.7719V7.75746Z" fill="#393E41"/>
<path d="M86.311 14.2134C85.1656 15.3328 83.7078 15.8534 82.1199 15.8534C78.0068 15.8534 76.2887 13.0159 76.2627 10.1524C76.2367 7.26288 78.137 4.32129 82.1199 4.32129C83.6297 4.32129 85.0354 4.89399 86.1808 6.01336L84.8012 7.36701C84.0723 6.66415 83.0831 6.32574 82.1199 6.32574C79.4386 6.32574 78.2932 8.30416 78.3192 10.1524C78.3453 11.9746 79.3865 13.901 82.1199 13.901C83.0831 13.901 84.1764 13.5105 84.9053 12.7816L86.311 14.2134Z" fill="#393E41"/>
<path d="M93.6 7.83557H95.4483V15.6191H93.626L93.5219 14.4737C93.0794 15.3848 91.8559 15.8273 90.9968 15.8534C88.68 15.8794 86.9879 14.4477 86.9879 11.7143C86.9879 9.03304 88.7841 7.62732 91.0489 7.62732C92.0901 7.62732 93.0794 8.12192 93.5219 8.90288L93.6 7.83557ZM88.9403 11.7143C88.9403 13.1981 89.9555 14.0832 91.2571 14.0832C94.3029 14.0832 94.3029 9.37145 91.2571 9.37145C89.9555 9.34542 88.9403 10.2305 88.9403 11.7143Z" fill="#393E41"/>
<path d="M99.327 7.80954L99.4571 8.72066C100.056 7.75748 100.863 7.62732 101.644 7.62732C102.451 7.62732 103.232 7.9397 103.648 8.38224L102.789 10.0483C102.399 9.70987 102.034 9.55367 101.41 9.55367C100.394 9.55367 99.4571 10.1003 99.4571 11.5321V15.6451H97.5308V7.8616H99.327V7.80954Z" fill="#393E41"/>
<path d="M107.501 5.62286V7.83557H109.662V9.50161H107.501V12.8597C107.501 13.6146 107.918 13.953 108.516 13.953C108.829 13.953 109.167 13.8489 109.453 13.7188L110 15.3588C109.453 15.5931 108.985 15.6711 108.412 15.6972C106.72 15.7492 105.627 14.7861 105.627 12.8597V9.50161H104.169V7.83557H105.627V5.83112L107.501 5.62286Z" fill="#393E41"/>
</svg>
