<?xml version="1.0" encoding="utf-8"?>
<!-- Generator: Adobe Illustrator 28.0.0, SVG Export Plug-In . SVG Version: 6.00 Build 0)  -->
<svg version="1.1" id="Layer_1" xmlns="http://www.w3.org/2000/svg" xmlns:xlink="http://www.w3.org/1999/xlink" x="0px" y="0px"
	 viewBox="0 0 110 80" style="enable-background:new 0 0 110 80;" xml:space="preserve">
<style type="text/css">
	.st0{clip-path:url(#SVGID_00000137126294751672091910000010667834735580543917_);}
	.st1{fill:#F26B21;}
</style>
<g>
	<defs>
		<rect id="SVGID_1_" width="109.7" height="80"/>
	</defs>
	<clipPath id="SVGID_00000089552567705057068120000012327330990461784977_">
		<use xlink:href="#SVGID_1_"  style="overflow:visible;"/>
	</clipPath>
	<g style="clip-path:url(#SVGID_00000089552567705057068120000012327330990461784977_);">
		<path class="st1" d="M31,29.1l50-14.5L69.8,31.3c-3.5-3.3-7.5-6.1-13-4.3c-3.1,1-5.5,2.9-6.9,6.1c1.5-0.1,2.8-0.3,4.1-0.2
			c3,0.2,5.6,1.7,7.8,3.6c3.7,3,7.2,6.2,11.1,9.5c0.4-0.6,1-1.2,1.2-1.9c3-8.7,6.4-17.3,10.8-25.4c4-7.3,9.7-13.1,16-18.4
			c0.2-0.1,0.3-0.2,0.5-0.3c0.1,0,0.2,0,0.2,0l-6.3,9.8l0.4,0.4c1.4-0.4,2.8-0.6,4.1-1.1c5.4-1.9,10.4,2.8,9.9,8.4
			c-0.8,8.4-1.2,16.8-1.8,25.2c-0.1,1.8-0.1,3.6-0.4,5.4c-0.5,3.3-2.2,5.6-5.5,6.6c-0.9,0.3-1.7,0.5-2.6,0.7c-1.8,0.4-3.2,1-4.3,2.7
			c-1.1,1.8-3.6,2.4-5.6,1.8c-2.5-0.8-3.8-2.6-4.1-5.1C85.1,52.5,86,50.4,88,49c1.9-1.3,3.9-1.3,6-0.1c0.4,0.2,0.8,0.3,1.2,0.3
			c1.8-0.5,3.5-1,5.3-1.5c-2-4.6-8.3-6.9-13.4-5c-6.6,2.5-8.8,9.1-5.9,17.9c-2.9,0.8-5.9,1.7-8.8,2.6c-0.6,0.2-1.1,0.6-1.4,1.1
			c-1.8,2.8-4.9,3.8-7.6,2.3c-2.9-1.6-3.9-5.4-2.2-8.4c1.6-2.9,4.7-3.8,7.7-2.2c0.3,0.2,0.8,0.4,1.1,0.4c1.9-0.5,3.7-1,5.6-1.6
			c-2.6-4.9-8.8-7-14-4.7c-6.2,2.7-8.3,9.5-5.4,17.7c-2.5,0.8-5.1,2-7.7,0.7c-1.4-0.7-2.9-1.8-3.7-3.1C35.7,51,26.7,36.7,17.6,22.4
			c-1.5-2.3-0.9-2-3.3-1.1c-2.9,1-5.7,2.1-8.7,2.9c-3,0.8-4.9-0.3-5.5-2.9c-0.4-1.6,0.2-2.9,1.5-3.8C3,16.6,4.5,15.9,6,15.3
			c2.7-1,5.5-1.9,8.2-2.9c3.7-1.3,7-0.2,9,3.2c2.5,4.2,4.8,8.4,7.2,12.7C30.6,28.5,30.8,28.7,31,29.1z"/>
		<path class="st1" d="M70.5,72.3c1.7-0.5,3.4-1.1,5.1-1.5c0.3-0.1,0.8,0.2,1.1,0.5c1.5,1.9,3.5,2.8,5.9,2.1c2.4-0.7,3.6-2.5,4-5
			c0-0.2,0.1-0.4,0.3-0.6c0.1-0.2,0.3-0.3,0.5-0.4c1.7-0.6,3.3-1,5-1.5c1.4,5.7-2.6,12.2-8.4,13.8C78.3,81.1,72.1,77.8,70.5,72.3z"
			/>
	</g>
</g>
</svg>
