<svg width="93" height="49" viewBox="0 0 93 49" fill="none" xmlns="http://www.w3.org/2000/svg">
<path d="M4.3927 43.0038C3.7487 43.0038 3.17004 42.8918 2.6567 42.6678C2.1527 42.4344 1.75604 42.1171 1.4667 41.7158C1.17737 41.3051 1.02804 40.8338 1.0187 40.3018H2.3767C2.42337 40.7591 2.61004 41.1464 2.9367 41.4638C3.2727 41.7718 3.75804 41.9258 4.3927 41.9258C4.99937 41.9258 5.47537 41.7764 5.8207 41.4778C6.17537 41.1698 6.3527 40.7778 6.3527 40.3018C6.3527 39.9284 6.25004 39.6251 6.0447 39.3918C5.83937 39.1584 5.5827 38.9811 5.2747 38.8598C4.9667 38.7384 4.55137 38.6078 4.0287 38.4678C3.3847 38.2998 2.8667 38.1318 2.4747 37.9638C2.09204 37.7958 1.7607 37.5344 1.4807 37.1798C1.21004 36.8158 1.0747 36.3304 1.0747 35.7238C1.0747 35.1918 1.21004 34.7204 1.4807 34.3098C1.75137 33.8991 2.12937 33.5818 2.6147 33.3578C3.10937 33.1338 3.67404 33.0218 4.3087 33.0218C5.22337 33.0218 5.97004 33.2504 6.5487 33.7078C7.1367 34.1651 7.46804 34.7718 7.5427 35.5278H6.1427C6.09604 35.1544 5.90004 34.8278 5.5547 34.5478C5.20937 34.2584 4.75204 34.1138 4.1827 34.1138C3.6507 34.1138 3.2167 34.2538 2.8807 34.5338C2.5447 34.8044 2.3767 35.1871 2.3767 35.6818C2.3767 36.0364 2.4747 36.3258 2.6707 36.5498C2.87604 36.7738 3.12337 36.9464 3.4127 37.0678C3.71137 37.1798 4.1267 37.3104 4.6587 37.4598C5.3027 37.6371 5.8207 37.8144 6.2127 37.9918C6.6047 38.1598 6.9407 38.4258 7.2207 38.7898C7.5007 39.1444 7.6407 39.6298 7.6407 40.2458C7.6407 40.7218 7.5147 41.1698 7.2627 41.5898C7.0107 42.0098 6.63737 42.3504 6.1427 42.6118C5.64804 42.8731 5.0647 43.0038 4.3927 43.0038ZM13.3235 35.0938C13.9022 35.0938 14.4248 35.2198 14.8915 35.4718C15.3582 35.7144 15.7222 36.0831 15.9835 36.5778C16.2542 37.0724 16.3895 37.6744 16.3895 38.3838V42.9058H15.1295V38.5658C15.1295 37.8004 14.9382 37.2171 14.5555 36.8158C14.1728 36.4051 13.6502 36.1998 12.9875 36.1998C12.3155 36.1998 11.7788 36.4098 11.3775 36.8298C10.9855 37.2498 10.7895 37.8611 10.7895 38.6638V42.9058H9.5155V32.5458H10.7895V36.3258C11.0415 35.9338 11.3868 35.6304 11.8255 35.4158C12.2735 35.2011 12.7728 35.0938 13.3235 35.0938ZM17.9946 39.0418C17.9946 38.2578 18.1532 37.5718 18.4706 36.9838C18.7879 36.3864 19.2219 35.9244 19.7726 35.5978C20.3326 35.2711 20.9532 35.1078 21.6346 35.1078C22.3066 35.1078 22.8899 35.2524 23.3846 35.5418C23.8792 35.8311 24.2479 36.1951 24.4906 36.6338V35.2338H25.7786V42.9058H24.4906V41.4778C24.2386 41.9258 23.8606 42.2991 23.3566 42.5978C22.8619 42.8871 22.2832 43.0318 21.6206 43.0318C20.9392 43.0318 20.3232 42.8638 19.7726 42.5278C19.2219 42.1918 18.7879 41.7204 18.4706 41.1138C18.1532 40.5071 17.9946 39.8164 17.9946 39.0418ZM24.4906 39.0558C24.4906 38.4771 24.3739 37.9731 24.1406 37.5438C23.9072 37.1144 23.5899 36.7878 23.1886 36.5638C22.7966 36.3304 22.3626 36.2138 21.8866 36.2138C21.4106 36.2138 20.9766 36.3258 20.5846 36.5498C20.1926 36.7738 19.8799 37.1004 19.6466 37.5298C19.4132 37.9591 19.2966 38.4631 19.2966 39.0418C19.2966 39.6298 19.4132 40.1431 19.6466 40.5818C19.8799 41.0111 20.1926 41.3424 20.5846 41.5758C20.9766 41.7998 21.4106 41.9118 21.8866 41.9118C22.3626 41.9118 22.7966 41.7998 23.1886 41.5758C23.5899 41.3424 23.9072 41.0111 24.1406 40.5818C24.3739 40.1431 24.4906 39.6344 24.4906 39.0558ZM29.2055 36.4798C29.4295 36.0411 29.7468 35.7004 30.1575 35.4578C30.5775 35.2151 31.0862 35.0938 31.6835 35.0938V36.4098H31.3475C29.9195 36.4098 29.2055 37.1844 29.2055 38.7338V42.9058H27.9315V35.2338H29.2055V36.4798ZM40.1542 38.7758C40.1542 39.0184 40.1402 39.2751 40.1122 39.5458H33.9802C34.0268 40.3018 34.2835 40.8944 34.7502 41.3238C35.2262 41.7438 35.8002 41.9538 36.4722 41.9538C37.0228 41.9538 37.4802 41.8278 37.8442 41.5758C38.2175 41.3144 38.4788 40.9691 38.6282 40.5398H40.0002C39.7948 41.2771 39.3842 41.8791 38.7682 42.3458C38.1522 42.8031 37.3868 43.0318 36.4722 43.0318C35.7442 43.0318 35.0908 42.8684 34.5122 42.5418C33.9428 42.2151 33.4948 41.7531 33.1682 41.1558C32.8415 40.5491 32.6782 39.8491 32.6782 39.0558C32.6782 38.2624 32.8368 37.5671 33.1542 36.9698C33.4715 36.3724 33.9148 35.9151 34.4842 35.5978C35.0628 35.2711 35.7255 35.1078 36.4722 35.1078C37.2002 35.1078 37.8442 35.2664 38.4042 35.5838C38.9642 35.9011 39.3935 36.3398 39.6922 36.8998C40.0002 37.4504 40.1542 38.0758 40.1542 38.7758ZM38.8382 38.5098C38.8382 38.0244 38.7308 37.6091 38.5162 37.2638C38.3015 36.9091 38.0075 36.6431 37.6342 36.4658C37.2702 36.2791 36.8642 36.1858 36.4162 36.1858C35.7722 36.1858 35.2215 36.3911 34.7642 36.8018C34.3162 37.2124 34.0595 37.7818 33.9942 38.5098H38.8382ZM53.0582 42.9058L51.7842 41.6178C51.3082 42.1124 50.7996 42.4811 50.2582 42.7238C49.7169 42.9571 49.1056 43.0738 48.4242 43.0738C47.7522 43.0738 47.1549 42.9524 46.6322 42.7098C46.1189 42.4671 45.7176 42.1218 45.4282 41.6738C45.1482 41.2258 45.0082 40.7031 45.0082 40.1058C45.0082 39.4244 45.1996 38.8271 45.5822 38.3138C45.9742 37.7911 46.5482 37.3804 47.3042 37.0818C47.0056 36.7271 46.7909 36.4004 46.6602 36.1018C46.5296 35.8031 46.4642 35.4764 46.4642 35.1218C46.4642 34.7111 46.5669 34.3424 46.7722 34.0158C46.9869 33.6798 47.2902 33.4184 47.6822 33.2318C48.0742 33.0451 48.5269 32.9518 49.0402 32.9518C49.5442 32.9518 49.9829 33.0498 50.3562 33.2458C50.7296 33.4418 51.0096 33.7171 51.1962 34.0718C51.3829 34.4171 51.4669 34.8044 51.4482 35.2338H50.1742C50.1836 34.8511 50.0762 34.5524 49.8522 34.3378C49.6282 34.1138 49.3389 34.0018 48.9842 34.0018C48.6109 34.0018 48.3076 34.1091 48.0742 34.3238C47.8502 34.5291 47.7382 34.7951 47.7382 35.1218C47.7382 35.4018 47.8129 35.6724 47.9622 35.9338C48.1209 36.1951 48.3822 36.5171 48.7462 36.8998L51.6582 39.8258L51.9102 39.4338L52.8622 37.8378H54.2342L53.0862 39.8258C52.9276 40.1058 52.7409 40.3998 52.5262 40.7078L54.7242 42.9058H53.0582ZM48.4242 41.9818C48.9282 41.9818 49.3809 41.8838 49.7822 41.6878C50.1929 41.4918 50.5802 41.1884 50.9442 40.7778L48.0742 37.8938C46.8796 38.3511 46.2822 39.0744 46.2822 40.0638C46.2822 40.6144 46.4782 41.0718 46.8702 41.4358C47.2716 41.7998 47.7896 41.9818 48.4242 41.9818ZM62.7443 43.0038C62.1003 43.0038 61.5216 42.8918 61.0083 42.6678C60.5043 42.4344 60.1076 42.1171 59.8183 41.7158C59.5289 41.3051 59.3796 40.8338 59.3703 40.3018H60.7283C60.7749 40.7591 60.9616 41.1464 61.2883 41.4638C61.6243 41.7718 62.1096 41.9258 62.7443 41.9258C63.3509 41.9258 63.8269 41.7764 64.1723 41.4778C64.5269 41.1698 64.7043 40.7778 64.7043 40.3018C64.7043 39.9284 64.6016 39.6251 64.3963 39.3918C64.1909 39.1584 63.9343 38.9811 63.6263 38.8598C63.3183 38.7384 62.9029 38.6078 62.3803 38.4678C61.7363 38.2998 61.2183 38.1318 60.8263 37.9638C60.4436 37.7958 60.1123 37.5344 59.8323 37.1798C59.5616 36.8158 59.4263 36.3304 59.4263 35.7238C59.4263 35.1918 59.5616 34.7204 59.8323 34.3098C60.1029 33.8991 60.4809 33.5818 60.9663 33.3578C61.4609 33.1338 62.0256 33.0218 62.6603 33.0218C63.5749 33.0218 64.3216 33.2504 64.9003 33.7078C65.4883 34.1651 65.8196 34.7718 65.8943 35.5278H64.4943C64.4476 35.1544 64.2516 34.8278 63.9063 34.5478C63.5609 34.2584 63.1036 34.1138 62.5343 34.1138C62.0023 34.1138 61.5683 34.2538 61.2323 34.5338C60.8963 34.8044 60.7283 35.1871 60.7283 35.6818C60.7283 36.0364 60.8263 36.3258 61.0223 36.5498C61.2276 36.7738 61.4749 36.9464 61.7643 37.0678C62.0629 37.1798 62.4783 37.3104 63.0103 37.4598C63.6543 37.6371 64.1723 37.8144 64.5643 37.9918C64.9563 38.1598 65.2923 38.4258 65.5723 38.7898C65.8523 39.1444 65.9923 39.6298 65.9923 40.2458C65.9923 40.7218 65.8663 41.1698 65.6143 41.5898C65.3623 42.0098 64.9889 42.3504 64.4943 42.6118C63.9996 42.8731 63.4163 43.0038 62.7443 43.0038ZM67.3911 39.0418C67.3911 38.2578 67.5497 37.5718 67.8671 36.9838C68.1844 36.3864 68.6184 35.9244 69.1691 35.5978C69.7291 35.2711 70.3497 35.1078 71.0311 35.1078C71.7031 35.1078 72.2864 35.2524 72.7811 35.5418C73.2757 35.8311 73.6444 36.1951 73.8871 36.6338V35.2338H75.1751V42.9058H73.8871V41.4778C73.6351 41.9258 73.2571 42.2991 72.7531 42.5978C72.2584 42.8871 71.6797 43.0318 71.0171 43.0318C70.3357 43.0318 69.7197 42.8638 69.1691 42.5278C68.6184 42.1918 68.1844 41.7204 67.8671 41.1138C67.5497 40.5071 67.3911 39.8164 67.3911 39.0418ZM73.8871 39.0558C73.8871 38.4771 73.7704 37.9731 73.5371 37.5438C73.3037 37.1144 72.9864 36.7878 72.5851 36.5638C72.1931 36.3304 71.7591 36.2138 71.2831 36.2138C70.8071 36.2138 70.3731 36.3258 69.9811 36.5498C69.5891 36.7738 69.2764 37.1004 69.0431 37.5298C68.8097 37.9591 68.6931 38.4631 68.6931 39.0418C68.6931 39.6298 68.8097 40.1431 69.0431 40.5818C69.2764 41.0111 69.5891 41.3424 69.9811 41.5758C70.3731 41.7998 70.8071 41.9118 71.2831 41.9118C71.7591 41.9118 72.1931 41.7998 72.5851 41.5758C72.9864 41.3424 73.3037 41.0111 73.5371 40.5818C73.7704 40.1431 73.8871 39.6344 73.8871 39.0558ZM80.184 41.7298L82.564 35.2338H83.922L80.912 42.9058H79.428L76.418 35.2338H77.79L80.184 41.7298ZM92.1757 38.7758C92.1757 39.0184 92.1617 39.2751 92.1337 39.5458H86.0017C86.0483 40.3018 86.305 40.8944 86.7717 41.3238C87.2477 41.7438 87.8217 41.9538 88.4937 41.9538C89.0443 41.9538 89.5017 41.8278 89.8657 41.5758C90.239 41.3144 90.5003 40.9691 90.6497 40.5398H92.0217C91.8163 41.2771 91.4057 41.8791 90.7897 42.3458C90.1737 42.8031 89.4083 43.0318 88.4937 43.0318C87.7657 43.0318 87.1123 42.8684 86.5337 42.5418C85.9643 42.2151 85.5163 41.7531 85.1897 41.1558C84.863 40.5491 84.6997 39.8491 84.6997 39.0558C84.6997 38.2624 84.8583 37.5671 85.1757 36.9698C85.493 36.3724 85.9363 35.9151 86.5057 35.5978C87.0843 35.2711 87.747 35.1078 88.4937 35.1078C89.2217 35.1078 89.8657 35.2664 90.4257 35.5838C90.9857 35.9011 91.415 36.3398 91.7137 36.8998C92.0217 37.4504 92.1757 38.0758 92.1757 38.7758ZM90.8597 38.5098C90.8597 38.0244 90.7523 37.6091 90.5377 37.2638C90.323 36.9091 90.029 36.6431 89.6557 36.4658C89.2917 36.2791 88.8857 36.1858 88.4377 36.1858C87.7937 36.1858 87.243 36.3911 86.7857 36.8018C86.3377 37.2124 86.081 37.7818 86.0157 38.5098H90.8597Z" fill="#4363F9"/>
<path opacity="0.2" d="M49.4994 21.6558V15.4683C41.5846 15.4683 36.0146 20.2623 33.8928 22.522C33.8188 22.6014 33.7216 22.6554 33.6152 22.6763C33.5087 22.6973 33.3983 22.6841 33.2998 22.6387C33.2013 22.5933 33.1196 22.5179 33.0663 22.4234C33.0131 22.3288 32.991 22.2199 33.0033 22.1121C33.9675 13.7216 42.6919 7.21826 49.4994 7.21826V1.03076L59.8119 11.3433L49.4994 21.6558Z" fill="#4363F9"/>
<path d="M60.5733 10.615L50.2608 0.302452C50.1166 0.158144 49.9329 0.0598223 49.7329 0.019923C49.5329 -0.0199762 49.3255 0.000338808 49.137 0.0782987C48.9485 0.156259 48.7874 0.288362 48.674 0.457902C48.5606 0.627441 48.5 0.826803 48.4999 1.03077V6.23214C45.1561 6.51831 41.4629 8.15542 38.4246 10.7323C34.7662 13.8363 32.4885 17.8363 32.0102 21.9948C31.9729 22.3181 32.0384 22.645 32.1976 22.9289C32.3567 23.2127 32.6014 23.4392 32.8967 23.576C33.192 23.7128 33.5229 23.753 33.8424 23.6908C34.1618 23.6286 34.4536 23.4673 34.676 23.2297C36.094 21.7202 41.1394 16.9468 48.4999 16.5266V21.6558C48.5 21.8597 48.5606 22.0591 48.674 22.2286C48.7874 22.3982 48.9485 22.5303 49.137 22.6082C49.3255 22.6862 49.5329 22.7065 49.7329 22.6666C49.9329 22.6267 50.1166 22.5284 50.2608 22.3841L60.5733 12.0716C60.7661 11.8783 60.8744 11.6163 60.8744 11.3433C60.8744 11.0702 60.7661 10.8083 60.5733 10.615ZM50.5624 19.1666V15.4683C50.5624 15.1948 50.4538 14.9325 50.2604 14.7391C50.067 14.5457 49.8047 14.437 49.5312 14.437C45.9115 14.437 42.3859 15.3819 39.0524 17.2472C37.3546 18.2014 35.7728 19.3485 34.3383 20.6658C35.0859 17.5926 36.9705 14.6703 39.7588 12.3049C42.752 9.76675 46.4052 8.24952 49.5312 8.24952C49.8047 8.24952 50.067 8.14087 50.2604 7.94748C50.4538 7.75408 50.5624 7.49178 50.5624 7.21827V3.52124L58.3857 11.3433L50.5624 19.1666Z" fill="#4363F9"/>
</svg>
