<svg width="25" height="50" viewBox="0 0 25 50" fill="none" xmlns="http://www.w3.org/2000/svg">
<path d="M9.84809 37.098C9.84809 37.91 9.56809 38.5867 9.00809 39.128C8.45743 39.66 7.61276 39.926 6.47409 39.926H4.59809V44H3.32409V34.242H6.47409C7.57543 34.242 8.41076 34.508 8.98009 35.04C9.55876 35.572 9.84809 36.258 9.84809 37.098ZM6.47409 38.876C7.18343 38.876 7.70609 38.722 8.04209 38.414C8.37809 38.106 8.54609 37.6673 8.54609 37.098C8.54609 35.894 7.85543 35.292 6.47409 35.292H4.59809V38.876H6.47409ZM12.0895 35.082C11.8468 35.082 11.6415 34.998 11.4735 34.83C11.3055 34.662 11.2215 34.4567 11.2215 34.214C11.2215 33.9713 11.3055 33.766 11.4735 33.598C11.6415 33.43 11.8468 33.346 12.0895 33.346C12.3228 33.346 12.5188 33.43 12.6775 33.598C12.8455 33.766 12.9295 33.9713 12.9295 34.214C12.9295 34.4567 12.8455 34.662 12.6775 34.83C12.5188 34.998 12.3228 35.082 12.0895 35.082ZM12.7055 36.328V44H11.4315V36.328H12.7055ZM18.6148 36.188C19.5482 36.188 20.3042 36.4727 20.8828 37.042C21.4615 37.602 21.7508 38.414 21.7508 39.478V44H20.4908V39.66C20.4908 38.8947 20.2995 38.3113 19.9168 37.91C19.5342 37.4993 19.0115 37.294 18.3488 37.294C17.6768 37.294 17.1402 37.504 16.7388 37.924C16.3468 38.344 16.1508 38.9553 16.1508 39.758V44H14.8768V36.328H16.1508V37.42C16.4028 37.028 16.7435 36.7247 17.1728 36.51C17.6115 36.2953 18.0922 36.188 18.6148 36.188Z" fill="#4363F9"/>
<path d="M12.4897 0C5.59211 0 0 5.59211 0 12.4897C0 17.7837 3.28947 22.3067 7.93586 24.1262C7.82278 23.1394 7.73026 21.618 7.97697 20.5387C8.20313 19.5621 9.43668 14.3298 9.43668 14.3298C9.43668 14.3298 9.06661 13.5794 9.06661 12.4794C9.06661 10.7422 10.074 9.44696 11.3281 9.44696C12.3972 9.44696 12.9112 10.2488 12.9112 11.2048C12.9112 12.2738 12.2327 13.8775 11.8729 15.368C11.5748 16.6118 12.5 17.6295 13.7233 17.6295C15.9437 17.6295 17.6501 15.2858 17.6501 11.9141C17.6501 8.9227 15.5016 6.83594 12.428 6.83594C8.8713 6.83594 6.78454 9.49836 6.78454 12.2533C6.78454 13.3224 7.19572 14.4737 7.7097 15.1007C7.8125 15.2241 7.82278 15.3372 7.79194 15.4605C7.69942 15.8512 7.48355 16.7044 7.44243 16.8791C7.39104 17.1053 7.2574 17.1567 7.02097 17.0436C5.45847 16.3137 4.48191 14.0419 4.48191 12.2019C4.48191 8.2648 7.33964 4.64638 12.7364 4.64638C17.0641 4.64638 20.4359 7.73026 20.4359 11.8627C20.4359 15.9951 17.722 19.634 13.9597 19.634C12.6953 19.634 11.5029 18.9762 11.102 18.1949C11.102 18.1949 10.4749 20.5798 10.3207 21.1657C10.0432 22.2553 9.28248 23.6123 8.7685 24.4449C9.94038 24.8047 11.1739 25 12.4692 25C19.3668 25 24.9589 19.4079 24.9589 12.5103C24.9794 5.5921 19.3873 0 12.4897 0Z" fill="#4363F9"/>
</svg>
