<svg width="93" height="47" viewBox="0 0 93 47" fill="none" xmlns="http://www.w3.org/2000/svg">
<path d="M4.3927 41.098C3.7487 41.098 3.17004 40.986 2.6567 40.762C2.1527 40.5287 1.75604 40.2113 1.4667 39.81C1.17737 39.3993 1.02804 38.928 1.0187 38.396H2.3767C2.42337 38.8533 2.61004 39.2407 2.9367 39.558C3.2727 39.866 3.75804 40.02 4.3927 40.02C4.99937 40.02 5.47537 39.8707 5.8207 39.572C6.17537 39.264 6.3527 38.872 6.3527 38.396C6.3527 38.0227 6.25004 37.7193 6.0447 37.486C5.83937 37.2527 5.5827 37.0753 5.2747 36.954C4.9667 36.8327 4.55137 36.702 4.0287 36.562C3.3847 36.394 2.8667 36.226 2.4747 36.058C2.09204 35.89 1.7607 35.6287 1.4807 35.274C1.21004 34.91 1.0747 34.4247 1.0747 33.818C1.0747 33.286 1.21004 32.8147 1.4807 32.404C1.75137 31.9933 2.12937 31.676 2.6147 31.452C3.10937 31.228 3.67404 31.116 4.3087 31.116C5.22337 31.116 5.97004 31.3447 6.5487 31.802C7.1367 32.2593 7.46804 32.866 7.5427 33.622H6.1427C6.09604 33.2487 5.90004 32.922 5.5547 32.642C5.20937 32.3527 4.75204 32.208 4.1827 32.208C3.6507 32.208 3.2167 32.348 2.8807 32.628C2.5447 32.8987 2.3767 33.2813 2.3767 33.776C2.3767 34.1307 2.4747 34.42 2.6707 34.644C2.87604 34.868 3.12337 35.0407 3.4127 35.162C3.71137 35.274 4.1267 35.4047 4.6587 35.554C5.3027 35.7313 5.8207 35.9087 6.2127 36.086C6.6047 36.254 6.9407 36.52 7.2207 36.884C7.5007 37.2387 7.6407 37.724 7.6407 38.34C7.6407 38.816 7.5147 39.264 7.2627 39.684C7.0107 40.104 6.63737 40.4447 6.1427 40.706C5.64804 40.9673 5.0647 41.098 4.3927 41.098ZM13.3235 33.188C13.9022 33.188 14.4248 33.314 14.8915 33.566C15.3582 33.8087 15.7222 34.1773 15.9835 34.672C16.2542 35.1667 16.3895 35.7687 16.3895 36.478V41H15.1295V36.66C15.1295 35.8947 14.9382 35.3113 14.5555 34.91C14.1728 34.4993 13.6502 34.294 12.9875 34.294C12.3155 34.294 11.7788 34.504 11.3775 34.924C10.9855 35.344 10.7895 35.9553 10.7895 36.758V41H9.5155V30.64H10.7895V34.42C11.0415 34.028 11.3868 33.7247 11.8255 33.51C12.2735 33.2953 12.7728 33.188 13.3235 33.188ZM17.9946 37.136C17.9946 36.352 18.1532 35.666 18.4706 35.078C18.7879 34.4807 19.2219 34.0187 19.7726 33.692C20.3326 33.3653 20.9532 33.202 21.6346 33.202C22.3066 33.202 22.8899 33.3467 23.3846 33.636C23.8792 33.9253 24.2479 34.2893 24.4906 34.728V33.328H25.7786V41H24.4906V39.572C24.2386 40.02 23.8606 40.3933 23.3566 40.692C22.8619 40.9813 22.2832 41.126 21.6206 41.126C20.9392 41.126 20.3232 40.958 19.7726 40.622C19.2219 40.286 18.7879 39.8147 18.4706 39.208C18.1532 38.6013 17.9946 37.9107 17.9946 37.136ZM24.4906 37.15C24.4906 36.5713 24.3739 36.0673 24.1406 35.638C23.9072 35.2087 23.5899 34.882 23.1886 34.658C22.7966 34.4247 22.3626 34.308 21.8866 34.308C21.4106 34.308 20.9766 34.42 20.5846 34.644C20.1926 34.868 19.8799 35.1947 19.6466 35.624C19.4132 36.0533 19.2966 36.5573 19.2966 37.136C19.2966 37.724 19.4132 38.2373 19.6466 38.676C19.8799 39.1053 20.1926 39.4367 20.5846 39.67C20.9766 39.894 21.4106 40.006 21.8866 40.006C22.3626 40.006 22.7966 39.894 23.1886 39.67C23.5899 39.4367 23.9072 39.1053 24.1406 38.676C24.3739 38.2373 24.4906 37.7287 24.4906 37.15ZM29.2055 34.574C29.4295 34.1353 29.7468 33.7947 30.1575 33.552C30.5775 33.3093 31.0862 33.188 31.6835 33.188V34.504H31.3475C29.9195 34.504 29.2055 35.2787 29.2055 36.828V41H27.9315V33.328H29.2055V34.574ZM40.1542 36.87C40.1542 37.1127 40.1402 37.3693 40.1122 37.64H33.9802C34.0268 38.396 34.2835 38.9887 34.7502 39.418C35.2262 39.838 35.8002 40.048 36.4722 40.048C37.0228 40.048 37.4802 39.922 37.8442 39.67C38.2175 39.4087 38.4788 39.0633 38.6282 38.634H40.0002C39.7948 39.3713 39.3842 39.9733 38.7682 40.44C38.1522 40.8973 37.3868 41.126 36.4722 41.126C35.7442 41.126 35.0908 40.9627 34.5122 40.636C33.9428 40.3093 33.4948 39.8473 33.1682 39.25C32.8415 38.6433 32.6782 37.9433 32.6782 37.15C32.6782 36.3567 32.8368 35.6613 33.1542 35.064C33.4715 34.4667 33.9148 34.0093 34.4842 33.692C35.0628 33.3653 35.7255 33.202 36.4722 33.202C37.2002 33.202 37.8442 33.3607 38.4042 33.678C38.9642 33.9953 39.3935 34.434 39.6922 34.994C40.0002 35.5447 40.1542 36.17 40.1542 36.87ZM38.8382 36.604C38.8382 36.1187 38.7308 35.7033 38.5162 35.358C38.3015 35.0033 38.0075 34.7373 37.6342 34.56C37.2702 34.3733 36.8642 34.28 36.4162 34.28C35.7722 34.28 35.2215 34.4853 34.7642 34.896C34.3162 35.3067 34.0595 35.876 33.9942 36.604H38.8382ZM53.0582 41L51.7842 39.712C51.3082 40.2067 50.7996 40.5753 50.2582 40.818C49.7169 41.0513 49.1056 41.168 48.4242 41.168C47.7522 41.168 47.1549 41.0467 46.6322 40.804C46.1189 40.5613 45.7176 40.216 45.4282 39.768C45.1482 39.32 45.0082 38.7973 45.0082 38.2C45.0082 37.5187 45.1996 36.9213 45.5822 36.408C45.9742 35.8853 46.5482 35.4747 47.3042 35.176C47.0056 34.8213 46.7909 34.4947 46.6602 34.196C46.5296 33.8973 46.4642 33.5707 46.4642 33.216C46.4642 32.8053 46.5669 32.4367 46.7722 32.11C46.9869 31.774 47.2902 31.5127 47.6822 31.326C48.0742 31.1393 48.5269 31.046 49.0402 31.046C49.5442 31.046 49.9829 31.144 50.3562 31.34C50.7296 31.536 51.0096 31.8113 51.1962 32.166C51.3829 32.5113 51.4669 32.8987 51.4482 33.328H50.1742C50.1836 32.9453 50.0762 32.6467 49.8522 32.432C49.6282 32.208 49.3389 32.096 48.9842 32.096C48.6109 32.096 48.3076 32.2033 48.0742 32.418C47.8502 32.6233 47.7382 32.8893 47.7382 33.216C47.7382 33.496 47.8129 33.7667 47.9622 34.028C48.1209 34.2893 48.3822 34.6113 48.7462 34.994L51.6582 37.92L51.9102 37.528L52.8622 35.932H54.2342L53.0862 37.92C52.9276 38.2 52.7409 38.494 52.5262 38.802L54.7242 41H53.0582ZM48.4242 40.076C48.9282 40.076 49.3809 39.978 49.7822 39.782C50.1929 39.586 50.5802 39.2827 50.9442 38.872L48.0742 35.988C46.8796 36.4453 46.2822 37.1687 46.2822 38.158C46.2822 38.7087 46.4782 39.166 46.8702 39.53C47.2716 39.894 47.7896 40.076 48.4242 40.076ZM62.7443 41.098C62.1003 41.098 61.5216 40.986 61.0083 40.762C60.5043 40.5287 60.1076 40.2113 59.8183 39.81C59.5289 39.3993 59.3796 38.928 59.3703 38.396H60.7283C60.7749 38.8533 60.9616 39.2407 61.2883 39.558C61.6243 39.866 62.1096 40.02 62.7443 40.02C63.3509 40.02 63.8269 39.8707 64.1723 39.572C64.5269 39.264 64.7043 38.872 64.7043 38.396C64.7043 38.0227 64.6016 37.7193 64.3963 37.486C64.1909 37.2527 63.9343 37.0753 63.6263 36.954C63.3183 36.8327 62.9029 36.702 62.3803 36.562C61.7363 36.394 61.2183 36.226 60.8263 36.058C60.4436 35.89 60.1123 35.6287 59.8323 35.274C59.5616 34.91 59.4263 34.4247 59.4263 33.818C59.4263 33.286 59.5616 32.8147 59.8323 32.404C60.1029 31.9933 60.4809 31.676 60.9663 31.452C61.4609 31.228 62.0256 31.116 62.6603 31.116C63.5749 31.116 64.3216 31.3447 64.9003 31.802C65.4883 32.2593 65.8196 32.866 65.8943 33.622H64.4943C64.4476 33.2487 64.2516 32.922 63.9063 32.642C63.5609 32.3527 63.1036 32.208 62.5343 32.208C62.0023 32.208 61.5683 32.348 61.2323 32.628C60.8963 32.8987 60.7283 33.2813 60.7283 33.776C60.7283 34.1307 60.8263 34.42 61.0223 34.644C61.2276 34.868 61.4749 35.0407 61.7643 35.162C62.0629 35.274 62.4783 35.4047 63.0103 35.554C63.6543 35.7313 64.1723 35.9087 64.5643 36.086C64.9563 36.254 65.2923 36.52 65.5723 36.884C65.8523 37.2387 65.9923 37.724 65.9923 38.34C65.9923 38.816 65.8663 39.264 65.6143 39.684C65.3623 40.104 64.9889 40.4447 64.4943 40.706C63.9996 40.9673 63.4163 41.098 62.7443 41.098ZM67.3911 37.136C67.3911 36.352 67.5497 35.666 67.8671 35.078C68.1844 34.4807 68.6184 34.0187 69.1691 33.692C69.7291 33.3653 70.3497 33.202 71.0311 33.202C71.7031 33.202 72.2864 33.3467 72.7811 33.636C73.2757 33.9253 73.6444 34.2893 73.8871 34.728V33.328H75.1751V41H73.8871V39.572C73.6351 40.02 73.2571 40.3933 72.7531 40.692C72.2584 40.9813 71.6797 41.126 71.0171 41.126C70.3357 41.126 69.7197 40.958 69.1691 40.622C68.6184 40.286 68.1844 39.8147 67.8671 39.208C67.5497 38.6013 67.3911 37.9107 67.3911 37.136ZM73.8871 37.15C73.8871 36.5713 73.7704 36.0673 73.5371 35.638C73.3037 35.2087 72.9864 34.882 72.5851 34.658C72.1931 34.4247 71.7591 34.308 71.2831 34.308C70.8071 34.308 70.3731 34.42 69.9811 34.644C69.5891 34.868 69.2764 35.1947 69.0431 35.624C68.8097 36.0533 68.6931 36.5573 68.6931 37.136C68.6931 37.724 68.8097 38.2373 69.0431 38.676C69.2764 39.1053 69.5891 39.4367 69.9811 39.67C70.3731 39.894 70.8071 40.006 71.2831 40.006C71.7591 40.006 72.1931 39.894 72.5851 39.67C72.9864 39.4367 73.3037 39.1053 73.5371 38.676C73.7704 38.2373 73.8871 37.7287 73.8871 37.15ZM80.184 39.824L82.564 33.328H83.922L80.912 41H79.428L76.418 33.328H77.79L80.184 39.824ZM92.1757 36.87C92.1757 37.1127 92.1617 37.3693 92.1337 37.64H86.0017C86.0483 38.396 86.305 38.9887 86.7717 39.418C87.2477 39.838 87.8217 40.048 88.4937 40.048C89.0443 40.048 89.5017 39.922 89.8657 39.67C90.239 39.4087 90.5003 39.0633 90.6497 38.634H92.0217C91.8163 39.3713 91.4057 39.9733 90.7897 40.44C90.1737 40.8973 89.4083 41.126 88.4937 41.126C87.7657 41.126 87.1123 40.9627 86.5337 40.636C85.9643 40.3093 85.5163 39.8473 85.1897 39.25C84.863 38.6433 84.6997 37.9433 84.6997 37.15C84.6997 36.3567 84.8583 35.6613 85.1757 35.064C85.493 34.4667 85.9363 34.0093 86.5057 33.692C87.0843 33.3653 87.747 33.202 88.4937 33.202C89.2217 33.202 89.8657 33.3607 90.4257 33.678C90.9857 33.9953 91.415 34.434 91.7137 34.994C92.0217 35.5447 92.1757 36.17 92.1757 36.87ZM90.8597 36.604C90.8597 36.1187 90.7523 35.7033 90.5377 35.358C90.323 35.0033 90.029 34.7373 89.6557 34.56C89.2917 34.3733 88.8857 34.28 88.4377 34.28C87.7937 34.28 87.243 34.4853 86.7857 34.896C86.3377 35.3067 86.081 35.876 86.0157 36.604H90.8597Z" fill="#4363F9"/>
<path opacity="0.2" d="M49.4782 22.9193V16.3977C41.136 16.3977 35.2652 21.4506 33.0289 23.8323C32.9509 23.916 32.8485 23.9729 32.7363 23.9949C32.6241 24.017 32.5077 24.0031 32.4039 23.9553C32.3 23.9074 32.2139 23.828 32.1578 23.7283C32.1017 23.6287 32.0784 23.5139 32.0914 23.4003C33.1077 14.5567 42.3031 7.70225 49.4782 7.70225V1.18066L60.3475 12.05L49.4782 22.9193Z" fill="#4363F9"/>
<path d="M61.1161 11.2823L50.2468 0.413021C50.0948 0.260921 49.9012 0.157291 49.6904 0.115237C49.4795 0.0731834 49.261 0.0945954 49.0623 0.176765C48.8636 0.258934 48.6938 0.39817 48.5743 0.576864C48.4548 0.755558 48.3909 0.965683 48.3908 1.18067V6.66288C44.8664 6.9645 40.9739 8.69 37.7715 11.406C33.9156 14.6776 31.5149 18.8936 31.0108 23.2766C30.9714 23.6174 31.0405 23.9619 31.2082 24.2611C31.376 24.5603 31.6338 24.799 31.9451 24.9432C32.2563 25.0874 32.6051 25.1297 32.9419 25.0642C33.2786 24.9987 33.586 24.8286 33.8205 24.5782C35.315 22.9872 40.6328 17.9561 48.3908 17.5132V22.9193C48.3909 23.1343 48.4548 23.3444 48.5743 23.5231C48.6938 23.7018 48.8636 23.841 49.0623 23.9232C49.261 24.0054 49.4795 24.0268 49.6904 23.9847C49.9012 23.9427 50.0948 23.839 50.2468 23.6869L61.1161 12.8176C61.3193 12.6139 61.4335 12.3378 61.4335 12.05C61.4335 11.7622 61.3193 11.4861 61.1161 11.2823ZM50.5647 20.2957V16.3977C50.5647 16.1094 50.4502 15.833 50.2463 15.6291C50.0425 15.4253 49.766 15.3108 49.4777 15.3108C45.6626 15.3108 41.9467 16.3067 38.4332 18.2727C36.6437 19.2784 34.9765 20.4875 33.4645 21.8758C34.2526 18.6368 36.2389 15.5567 39.1777 13.0635C42.3325 10.3883 46.183 8.78918 49.4777 8.78918C49.766 8.78918 50.0425 8.67467 50.2463 8.47083C50.4502 8.26699 50.5647 7.99053 50.5647 7.70225V3.80561L58.8104 12.05L50.5647 20.2957Z" fill="#4363F9"/>
</svg>
