<svg width="33" height="61" viewBox="0 0 33 61" fill="none" xmlns="http://www.w3.org/2000/svg">
<path d="M13.8481 48.098C13.8481 48.91 13.5681 49.5867 13.0081 50.128C12.4574 50.66 11.6128 50.926 10.4741 50.926H8.59809V55H7.32409V45.242H10.4741C11.5754 45.242 12.4108 45.508 12.9801 46.04C13.5588 46.572 13.8481 47.258 13.8481 48.098ZM10.4741 49.876C11.1834 49.876 11.7061 49.722 12.0421 49.414C12.3781 49.106 12.5461 48.6673 12.5461 48.098C12.5461 46.894 11.8554 46.292 10.4741 46.292H8.59809V49.876H10.4741ZM16.0895 46.082C15.8468 46.082 15.6415 45.998 15.4735 45.83C15.3055 45.662 15.2215 45.4567 15.2215 45.214C15.2215 44.9713 15.3055 44.766 15.4735 44.598C15.6415 44.43 15.8468 44.346 16.0895 44.346C16.3228 44.346 16.5188 44.43 16.6775 44.598C16.8455 44.766 16.9295 44.9713 16.9295 45.214C16.9295 45.4567 16.8455 45.662 16.6775 45.83C16.5188 45.998 16.3228 46.082 16.0895 46.082ZM16.7055 47.328V55H15.4315V47.328H16.7055ZM22.6148 47.188C23.5482 47.188 24.3042 47.4727 24.8828 48.042C25.4615 48.602 25.7508 49.414 25.7508 50.478V55H24.4908V50.66C24.4908 49.8947 24.2995 49.3113 23.9168 48.91C23.5342 48.4993 23.0115 48.294 22.3488 48.294C21.6768 48.294 21.1402 48.504 20.7388 48.924C20.3468 49.344 20.1508 49.9553 20.1508 50.758V55H18.8768V47.328H20.1508V48.42C20.4028 48.028 20.7435 47.7247 21.1728 47.51C21.6115 47.2953 22.0922 47.188 22.6148 47.188Z" fill="#4363F9"/>
<path d="M16.4864 0C7.38158 0 0 7.38158 0 16.4864C0 23.4745 4.3421 29.4449 10.4753 31.8466C10.3261 30.544 10.2039 28.5358 10.5296 27.111C10.8281 25.822 12.4564 18.9153 12.4564 18.9153C12.4564 18.9153 11.9679 17.9248 11.9679 16.4729C11.9679 14.1797 13.2977 12.47 14.9531 12.47C16.3643 12.47 17.0428 13.5284 17.0428 14.7903C17.0428 16.2015 16.1472 18.3183 15.6723 20.2858C15.2788 21.9276 16.5 23.271 18.1147 23.271C21.0456 23.271 23.2981 20.1772 23.2981 15.7266C23.2981 11.778 20.4622 9.02344 16.405 9.02344C11.7101 9.02344 8.95559 12.5378 8.95559 16.1743C8.95559 17.5855 9.49836 19.1053 10.1768 19.933C10.3125 20.0958 10.3261 20.2451 10.2854 20.4079C10.1632 20.9235 9.87829 22.0498 9.82401 22.2804C9.75617 22.5789 9.57977 22.6468 9.26768 22.4975C7.20518 21.5341 5.91612 18.5354 5.91612 16.1065C5.91612 10.9095 9.68832 6.13322 16.8121 6.13322C22.5247 6.13322 26.9753 10.2039 26.9753 15.6587C26.9753 21.1135 23.3931 25.9169 18.4268 25.9169C16.7578 25.9169 15.1838 25.0485 14.6546 24.0173C14.6546 24.0173 13.8269 27.1653 13.6234 27.9387C13.257 29.3771 12.2529 31.1682 11.5744 32.2673C13.1213 32.7422 14.7496 33 16.4593 33C25.5641 33 32.9457 25.6184 32.9457 16.5136C32.9729 7.38158 25.5913 0 16.4864 0Z" fill="#4363F9"/>
</svg>
